<svg width="200" height="200" viewBox="0 0 200 200" fill="none" xmlns="http://www.w3.org/2000/svg">
<mask id="mask0_71_85" style="mask-type:alpha" maskUnits="userSpaceOnUse" x="0" y="0" width="200" height="200">
<rect width="200" height="200" fill="#D9D9D9"/>
</mask>
<g mask="url(#mask0_71_85)">
<path d="M124.233 162.5C106.776 162.5 91.9889 156.442 79.8728 144.326C67.7568 132.21 61.6988 117.423 61.6988 99.9655C61.6988 82.5527 67.7568 67.7886 79.8728 55.6734C91.9889 43.558 106.776 37.5002 124.233 37.5002C141.646 37.5002 156.41 43.558 168.525 55.6734C180.641 67.7886 186.698 82.5527 186.698 99.9655C186.698 117.423 180.641 132.21 168.525 144.326C156.41 156.442 141.646 162.5 124.233 162.5ZM124.149 153.045C138.862 153.045 151.389 147.904 161.73 137.621C172.072 127.339 177.243 114.815 177.243 100.049C177.243 85.3369 172.089 72.8099 161.779 62.468C151.47 52.1262 138.96 46.9553 124.248 46.9553C109.482 46.9553 96.9417 52.1098 86.6265 62.419C76.3114 72.7282 71.1538 85.2389 71.1538 99.9511C71.1538 114.717 76.295 127.257 86.5773 137.572C96.8598 147.887 109.384 153.045 124.149 153.045ZM145.609 127.949L152.275 121.362L128.926 98.013V67.9488H119.471V101.859L145.609 127.949ZM21.6348 71.3942V61.9392H53.3655V71.3942H21.6348ZM13.3015 104.728V95.2725H53.3655V104.728H13.3015ZM21.6348 138.061V128.606H53.3655V138.061H21.6348Z" fill="#E7F5FF"/>
</g>
</svg>
