<svg width="200" height="200" viewBox="0 0 200 200" fill="none" xmlns="http://www.w3.org/2000/svg">
<mask id="mask0_71_79" style="mask-type:alpha" maskUnits="userSpaceOnUse" x="0" y="0" width="200" height="200">
<rect width="200" height="200" fill="#D9D9D9"/>
</mask>
<g mask="url(#mask0_71_79)">
<path d="M139.423 170.833C137.382 170.833 135.643 170.115 134.206 168.678C132.769 167.241 132.051 165.502 132.051 163.461V97.6444C132.051 95.6037 132.769 93.8649 134.206 92.428C135.643 90.991 137.382 90.2726 139.423 90.2726H171.794C173.835 90.2726 175.574 90.991 177.011 92.428C178.448 93.8649 179.166 95.6037 179.166 97.6444V163.461C179.166 165.502 178.448 167.241 177.011 168.678C175.574 170.115 173.835 170.833 171.794 170.833H139.423ZM139.423 158.173H171.794V102.933H139.423V158.173ZM67.3074 170.833V161.378H86.9389V137.5H32.8526C29.5754 137.5 26.7528 136.316 24.3849 133.948C22.0171 131.58 20.8333 128.758 20.8333 125.48V41.1863C20.8333 37.9091 22.0171 35.0865 24.3849 32.7186C26.7528 30.3508 29.5754 29.1669 32.8526 29.1669H150.352C153.749 29.1669 156.623 30.3508 158.974 32.7186C161.324 35.0865 162.5 37.9091 162.5 41.1863V76.6507H153.045V41.1863C153.13 40.4384 152.911 39.824 152.387 39.3432C151.864 38.8623 151.228 38.6219 150.48 38.6219H32.8526C32.1047 38.6219 31.4903 38.8623 31.0095 39.3432C30.5287 39.824 30.2883 40.4384 30.2883 41.1863V125.48C30.2883 126.228 30.5287 126.843 31.0095 127.324C31.4903 127.804 32.1047 128.045 32.8526 128.045H118.429V137.5H96.3939V161.378H116.025V170.833H67.3074ZM75.3203 110.625L91.6664 97.8044L108.012 110.625L102.035 90.064L118.589 76.6507H98.0349L91.6664 56.9873L85.2978 76.6507H64.7435L81.2978 90.064L75.3203 110.625Z" fill="#E7F5FF"/>
</g>
</svg>
