<svg width="500" height="500" viewBox="0 0 500 500" fill="none" xmlns="http://www.w3.org/2000/svg">
<g clip-path="url(#clip0_54_2)">
<rect width="500" height="500" rx="250" fill="#1A354B"/>
<mask id="mask0_54_2" style="mask-type:alpha" maskUnits="userSpaceOnUse" x="0" y="0" width="500" height="500">
<rect width="500" height="500" fill="#D9D9D9"/>
</mask>
<g mask="url(#mask0_54_2)">
<path d="M390.625 180.208C381.25 189.583 370.486 196.701 358.333 201.563C346.181 206.424 334.028 208.854 321.875 208.854C309.722 208.854 297.743 206.51 285.938 201.823C274.132 197.135 263.542 189.931 254.167 180.208L215.104 141.146C209.896 135.938 203.993 132.031 197.396 129.427C190.799 126.823 184.028 125.521 177.083 125.521C170.139 125.521 163.368 126.823 156.771 129.427C150.174 132.031 144.271 135.938 139.063 141.146L100 180.208L70.3125 150.521L109.375 111.458C118.75 102.083 129.34 95.0521 141.146 90.3646C152.951 85.6771 164.931 83.3334 177.083 83.3334C189.236 83.3334 201.128 85.6771 212.76 90.3646C224.392 95.0521 234.896 102.083 244.271 111.458L283.333 150.521C288.889 156.076 294.965 160.156 301.563 162.76C308.16 165.365 314.931 166.667 321.875 166.667C328.819 166.667 335.677 165.365 342.448 162.76C349.219 160.156 355.382 156.076 360.938 150.521L400 111.458L429.688 141.146L390.625 180.208ZM390.625 284.375C381.25 293.75 370.573 300.781 358.594 305.469C346.615 310.156 334.549 312.5 322.396 312.5C310.243 312.5 298.177 310.156 286.198 305.469C274.219 300.781 263.542 293.75 254.167 284.375L215.104 245.313C209.896 240.104 203.993 236.198 197.396 233.594C190.799 230.99 184.028 229.688 177.083 229.688C170.139 229.688 163.368 230.99 156.771 233.594C150.174 236.198 144.271 240.104 139.063 245.313L100 284.375L70.3125 255.208L109.375 215.625C118.75 206.25 129.34 199.219 141.146 194.531C152.951 189.844 164.931 187.5 177.083 187.5C189.236 187.5 201.128 189.844 212.76 194.531C224.392 199.219 234.896 206.25 244.271 215.625L283.333 254.688C288.889 260.243 294.965 264.323 301.563 266.927C308.16 269.531 314.931 270.833 321.875 270.833C328.819 270.833 335.677 269.531 342.448 266.927C349.219 264.323 355.382 260.243 360.938 254.688L400 215.625L429.688 245.313L390.625 284.375ZM390.104 388.542C380.729 397.917 370.139 404.948 358.333 409.635C346.528 414.323 334.549 416.667 322.396 416.667C310.243 416.667 298.177 414.323 286.198 409.635C274.219 404.948 263.542 397.917 254.167 388.542L214.583 349.479C209.375 344.271 203.472 340.365 196.875 337.76C190.278 335.156 183.507 333.854 176.563 333.854C169.618 333.854 162.847 335.156 156.25 337.76C149.653 340.365 143.75 344.271 138.542 349.479L99.4792 388.542L70.3125 359.375L109.375 319.792C118.75 310.417 129.34 303.385 141.146 298.698C152.951 294.01 164.931 291.667 177.083 291.667C189.236 291.667 201.128 294.01 212.76 298.698C224.392 303.385 234.896 310.417 244.271 319.792L283.333 358.854C288.889 364.41 295.052 368.49 301.823 371.094C308.594 373.698 315.451 375 322.396 375C329.34 375 336.111 373.698 342.708 371.094C349.306 368.49 355.382 364.41 360.938 358.854L400 319.792L429.167 349.479L390.104 388.542Z" fill="#005A66"/>
</g>
</g>
<defs>
<clipPath id="clip0_54_2">
<rect width="500" height="500" rx="250" fill="white"/>
</clipPath>
</defs>
</svg>
