<svg width="201" height="201" viewBox="0 0 201 201" fill="none" xmlns="http://www.w3.org/2000/svg">
<mask id="mask0_71_91" style="mask-type:alpha" maskUnits="userSpaceOnUse" x="0" y="0" width="201" height="201">
<rect x="0.122803" y="0.802368" width="200" height="200" fill="#D9D9D9"/>
</mask>
<g mask="url(#mask0_71_91)">
<path d="M81.4528 113.206L88.5522 90.4182L69.9624 76.4755H92.7445L100.123 52.8859L107.292 76.4755H130.283L111.773 90.4182L118.664 113.206L100.122 99.1357L81.4528 113.206ZM54.8826 186.058V127.132C48.8997 121.139 44.5273 114.413 41.7655 106.956C39.0037 99.4989 37.6228 91.8921 37.6228 84.1357C37.6228 66.5289 43.6377 51.7106 55.6676 39.6807C67.6975 27.6509 82.5158 21.6359 100.123 21.6359C117.729 21.6359 132.548 27.6509 144.578 39.6807C156.607 51.7106 162.622 66.5289 162.622 84.1357C162.622 91.8921 161.241 99.4989 158.48 106.956C155.718 114.413 151.346 121.139 145.363 127.132V186.058L100.123 171.601L54.8826 186.058ZM100.113 137.181C114.938 137.181 127.486 132.047 137.759 121.781C148.031 111.515 153.167 98.9698 153.167 84.1451C153.167 69.3205 148.034 56.772 137.768 46.4995C127.502 36.2271 114.957 31.0909 100.132 31.0909C85.3074 31.0909 72.7588 36.224 62.4863 46.4901C52.214 56.7562 47.0778 69.3016 47.0778 84.1264C47.0778 98.9509 52.2109 111.499 62.477 121.772C72.7431 132.044 85.2885 137.181 100.113 137.181ZM64.3374 173.046L100.123 161.988L135.908 173.046V134.937C130.619 138.965 124.874 141.921 118.672 143.807C112.47 145.693 106.287 146.636 100.123 146.636C93.958 146.636 87.7748 145.693 81.573 143.807C75.3711 141.921 69.6259 138.965 64.3374 134.937V173.046Z" fill="#E7F5FF"/>
</g>
</svg>
